<?xml version="1.0" encoding="UTF-8" standalone="no"?>
<!-- Created with Inkscape (http://www.inkscape.org/) -->

<svg
   version="1.1"
   id="svg1"
   width="783"
   height="162"
   viewBox="0 0 783 162"
   xmlns="http://www.w3.org/2000/svg"
   xmlns:svg="http://www.w3.org/2000/svg">
  <defs
     id="defs1" />
  <g
     id="g1">
    <path
       style="fill: currentcolor"
       d="m 259.14818,156.80848 c -4.95,-1.2494 -10.575,-2.95532 -12.5,-3.79094 -1.925,-0.83561 -5.39916,-2.30205 -7.72036,-3.25875 -2.3212,-0.9567 -4.97844,-2.57712 -5.90499,-3.60094 -0.92654,-1.02382 -2.11262,-1.86149 -2.63573,-1.86149 -2.80255,0 -13.21027,-9.78514 -18.75323,-17.63144 -1.60525,-2.27229 -4.50872,-5.06962 -6.45216,-6.21628 -2.90857,-1.7161 -3.53201,-2.6656 -3.52496,-5.36855 0.0339,-13.00345 0.76528,-12.85534 -62.00571,-12.55702 -51.812543,0.24625 -57.849211,0.44209 -61.002861,1.97904 -3.922879,1.91184 -26.868861,4.03827 -28.45,2.63649 -0.5225,-0.46323 -2.719365,-0.84224 -4.881923,-0.84224 -3.260361,0 -4.524242,-0.64049 -7.399889,-3.75 -1.907382,-2.0625 -4.953924,-5.350924 -6.770094,-7.307606 -1.861291,-2.005293 -5.199309,-4.160616 -7.650111,-4.939596 -2.391391,-0.7601 -5.235611,-1.97168 -6.320489,-2.6924 -1.084879,-0.72072 -3.011502,-1.3104 -4.281385,-1.3104 -1.269883,0 -2.555834,-0.64356 -2.857669,-1.43012 -0.3018343,-0.78657 -1.9642383,-1.92356 -3.6942303,-2.52663 -3.145441,-1.09651 -3.145441,-1.09651 -0.669826,-2.38293 1.361589,-0.70753 3.756686,-2.47503 5.3224383,-3.92777 1.565751,-1.45275 4.490751,-3.16623 6.5,-3.80775 2.009248,-0.64153 4.080678,-1.56204 4.603178,-2.0456 0.5225,-0.48356 2.0975,-0.88609 3.5,-0.89451 3.18158,-0.0191 3.97003,-0.57151 7.471552,-5.23469 1.548704,-2.0625 3.437416,-3.75 4.197137,-3.75 0.759721,0 1.381311,-0.45 1.381311,-1 0,-2.23769 4.110854,-5 7.440983,-5 1.892541,0 3.719098,-0.45 4.059017,-1 0.752072,-1.21688 6.17504,-1.33481 6.907164,-0.15021 0.288859,0.46738 4.513141,1.10815 9.387294,1.42394 6.948444,0.45017 9.858464,1.13041 13.476263,3.15021 4.614167,2.57606 4.614167,2.57606 61.53587,2.57606 62.25158,0 60.19341,0.38666 60.19341,-11.30818 0,-2.00038 0.67244,-2.99698 2.48786,-3.6872 2.92391,-1.11167 8.44064,-6.89493 8.48283,-8.89267 0.0298,-1.41293 11.87506,-13.05248 13.32222,-13.0909 0.4361,-0.0116 3.1361,-1.77217 6,-3.91243 6.86159,-5.12783 16.95491,-10.1132098 20.42857,-10.0902598 1.52819,0.0101 7.8549,-1.211 14.05937,-2.71354 11.25707,-2.72614 11.29502,-2.72827 18,-1.00996 3.69553,0.94706 8.38469,1.71816 10.42036,1.71354 12.46362,-0.0283 40.70362,16.3337698 48.62015,28.1701598 5.56568,8.32152 10.67307,11.67932 17.91429,11.77755 1.77961,0.0241 5.15461,0.48389 7.5,1.02166 21.80343,4.99932 48.40803,5.01197 98.26435,0.0467 26.16848,-2.60614 37.40408,-3.10848 57.5,-2.57083 35.30159,0.94446 85.73044,3.46487 114.47095,5.72119 31.05856,2.4383 39.47724,2.25317 95.02905,-2.08971 12.67129,-0.99061 17.27964,-2.42707 34.0913,-10.62655 3.90022,-1.90224 7.39928,-3.45861 7.77568,-3.45861 1.73898,0 -2.82493,6.1764 -9.02827,12.2181 -3.76129,3.66329 -8.54783,8.67292 -10.63676,11.13252 -2.08893,2.45961 -6.36393,6.18327 -9.5,8.2748 -3.13607,2.09154 -6.85397,4.83374 -8.26198,6.09378 -1.40802,1.26004 -6.35802,3.98779 -11,6.06165 -4.64199,2.07387 -9.56497,4.50898 -10.93997,5.41135 -1.375,0.90237 -6.55,2.86866 -11.5,4.36954 -4.95,1.50087 -11.25,3.761116 -14,5.022758 -6.24415,2.864686 -31.27648,8.413534 -37.99073,8.421294 -2.7551,0.003 -7.70927,0.46671 -11.00927,1.03006 -8.56832,1.46271 -81.25714,2.96166 -173,3.56752 -100.04443,0.66067 -110.25305,1.94888 -119.94762,15.13594 -4.14288,5.63537 -20.23028,22.26069 -21.54043,22.26069 -0.4233,0 -3.38519,1.575 -6.58197,3.5 -3.19678,1.925 -6.47132,3.5 -7.27676,3.5 -0.80544,0 -2.88282,1.08185 -4.61639,2.40411 -8.05898,6.14688 -32.08463,7.63922 -50.03683,3.10801 z m 1.5,-24.84931 c 0,-0.18545 1.34487,-4.79795 2.9886,-10.25 3.83339,-12.71489 3.83082,-12.74255 -1.47189,-15.85015 -5.13215,-3.00764 -11.51671,-9.225532 -11.51671,-11.216064 0,-1.691462 -3.43701,-1.744031 -6.31574,-0.0966 -1.20134,0.6875 -5.55926,2.375 -9.68426,3.75 -11.62639,3.875464 -5.57159,19.897194 10.88267,28.796864 2.53953,1.37356 5.74233,3.10341 7.11733,3.8441 2.20085,1.18557 8,1.92631 8,1.02185 z m 44.5,-3.66281 c 2.07626,-1.65 4.41443,-3 5.19594,-3 3.22217,0 16.30406,-16.94524 16.30406,-21.11899 0,-2.28165 -0.51427,-2.70763 -3.92789,-3.25349 -2.16033,-0.34545 -6.9493,-2.202966 -10.64215,-4.127809 -7.24647,-3.777119 -10.42996,-4.38166 -10.42996,-1.980638 0,0.835492 -2.76702,4.160335 -6.14893,7.388547 -6.76098,6.45369 -6.448,5.09176 -3.92789,17.09238 2.62333,12.49208 6.19953,14.86273 13.57682,9 z M 285.02606,89.968328 c 3.49208,-2.2881 3.80667,-10.89634 0.54954,-15.03711 -7.95001,-10.1068 -23.85577,2.13352 -17.77772,13.68088 2.22742,4.231751 11.70135,4.977553 17.22818,1.35623 z m -31.1333,-24.20752 c 2.27025,-2.49455 6.06895,-5.39425 8.44157,-6.44377 5.3501,-2.3666 5.40547,-3.19772 1.11716,-16.77068 -3.59058,-11.36459 -5.40167,-12.71357 -11.07618,-8.25 -1.39842,1.1 -3.06553,2 -3.70468,2 -3.73489,0 -18.00159,13.53738 -18.01599,17.09501 -0.004,0.87726 -0.90646,2.4095 -2.00646,3.40499 -4.94751,4.47743 -0.66429,10.34686 7.71788,10.57608 1.53017,0.0418 4.35712,0.68261 6.28212,1.42392 5.54799,2.13652 6.85989,1.78236 11.24458,-3.03555 z m 61.87746,0.95102 c 13.74687,-4.5299 14.11763,-9.17209 1.67763,-21.00547 -11.963,-11.37965 -20.74357,-14.45083 -23.32959,-8.16 -5.92156,14.40494 -5.64347,18.72242 1.67766,26.04662 7.683,7.6862 6.61828,7.51995 19.9743,3.11885 z"
       id="path1" />
  </g>
</svg>
